# xmcd
#
# Track frame offsets:
# 150
# 22605
# 35767
# 47917
# 59627
# 77497
# 94353
# 102177
# 117639
# 142099
#
# Disc length: 2231 seconds
#
#
# Revision: 0
# Processed by: cddbd v1.4PL0 Copyright (c) Steve Scherf et al.
# Submitted via: FreeRIP 2.51 
#
DISCID=8a08b50a
DTITLE=Jack and the Daniels - What Christmas Means to Us
DYEAR=2003
DGENRE=Blues
TTITLE0=White Christmas
TTITLE1=What Christmas means to me
TTITLE2=Here comes Santa Claus
TTITLE3=Santa bring my baby
TTITLE4=Swingin' drummer boy
TTITLE5=Santa Claus is coming to town
TTITLE6=Nisse Polka
TTITLE7=One little Christmas tree
TTITLE8=Winter Wonderland
TTITLE9=Silent Night
EXTD=
EXTT0=
EXTT1=
EXTT2=
EXTT3=
EXTT4=
EXTT5=
EXTT6=
EXTT7=
EXTT8=
EXTT9=
PLAYORDER=
